# xmcd CD database file
#
# Track frame offsets:
#	150
#	26457
#	28563
#	57614
#	59619
#	86110
#	89783
#	118221
#	121878
#	148995
#	178714
#	182145
#	203371
#	210839
#
# Disc length: 2837 seconds
#
# Revision: 0
# Processed by: cddbd v1.5.1PL0 Copyright (c) Steve Scherf et al.
# Submitted via: CDex 1.50
#
DISCID=cf0b130e
DTITLE=Kenny Cohen - KC Christmas
DYEAR=2004
DGENRE=Jazz
TTITLE0=Have Yourself a Merry Little Christmas
TTITLE1=Joy (interlude)
TTITLE2=Santa's Coming to Town
TTITLE3=Jingle Bells
TTITLE4=Winter Wonderland
TTITLE5=Peter and the Wolf
TTITLE6=We Three Kings
TTITLE7=Silent Night (interlude)
TTITLE8=Silent Night
TTITLE9=Rudolph
TTITLE10=We Wish You a Merry Christmas
TTITLE11=Auld Lang Syne
TTITLE12=Jingle Bells (flute)
TTITLE13=Joy (outro)
EXTD=YEAR: 2004
EXTT0=
EXTT1=
EXTT2=
EXTT3=
EXTT4=
EXTT5=
EXTT6=
EXTT7=
EXTT8=
EXTT9=
EXTT10=
EXTT11=
EXTT12=
EXTT13=
PLAYORDER=
